<svg width="548" height="147" viewBox="0 0 548 147" fill="none" xmlns="http://www.w3.org/2000/svg">
<path d="M21.2974 99.7425C21.2974 98.2824 21.2153 97.1872 21.0506 96.4571C20.8858 95.6709 20.5018 95.0812 19.8989 94.6881C19.3503 94.2951 18.7201 94.0143 18.0084 93.8457C17.2951 93.6773 16.7194 93.593 16.2812 93.593C15.6782 93.593 15.1025 93.6496 14.554 93.7627C14.0054 93.8184 13.2377 94.2116 12.2509 94.9421C11.3185 95.6721 10.8523 97.778 10.8523 101.26V132.681C10.8523 132.962 10.8523 133.383 10.8523 133.945C10.8523 134.506 11.0169 135.208 11.3464 136.051C11.6758 136.893 12.2245 137.511 12.9921 137.904C13.7598 138.297 14.7193 138.493 15.8704 138.493C16.7468 138.493 17.4871 138.437 18.0916 138.324C18.6946 138.155 19.2977 137.734 19.9006 137.06C20.558 136.33 20.9416 135.544 21.052 134.702C21.2167 133.859 21.2992 132.848 21.2992 131.669V122.403H14.7204V113.473H31.9893V145.737H22.8617V142.199L20.5586 144.473C19.5175 145.259 18.3112 145.877 16.9403 146.326C15.624 146.776 14.144 147 12.4999 147C9.26534 147 6.68849 146.326 4.76975 144.978C2.85101 143.575 1.64511 142.255 1.15171 141.019C0.657534 139.727 0.355983 138.52 0.247202 137.397C0.138421 136.274 0.0559446 135.432 0 134.87V101.006C0 99.7703 0.0313848 98.5067 0.0935454 97.215C0.202327 95.9233 0.668474 94.1824 1.4921 91.9922C2.31418 89.7459 4.15068 88.033 7.00168 86.8536C9.85236 85.6182 13.0318 85.0003 16.5405 85.0003C19.446 85.0003 22.1599 85.3935 24.6818 86.1798C27.2036 86.966 28.9304 88.1172 29.8623 89.6335C30.7947 91.0936 31.3704 92.3011 31.5895 93.2558C31.863 94.2105 32 95.3897 32 96.7938V105.47H21.3095L21.2974 99.7425Z" fill="white"/>
<path d="M60.9474 86L72 146H60.9474L59.5233 136.227H49.4754L47.8851 146H37L48.4715 86H60.9474ZM58.3515 126.963L54.751 101.212L50.8154 126.963H58.3515Z" fill="white"/>
<path d="M95.0274 86L102.085 127.983L109.228 86H127V146H115.946L116.965 93.9887L107.271 146H96.9824L87.0335 93.9887L87.8844 146H77V86H95.0274Z" fill="white"/>
<path d="M163.176 86V95.0935H145.71V109.201H162.188V118.295H145.71V136.737H164V146H135V86H163.176Z" fill="white"/>
<path d="M179.698 124.76V131.667C179.698 133.296 179.781 134.559 179.947 135.458C180.113 136.356 180.527 137.03 181.19 137.48C181.909 137.929 182.489 138.238 182.931 138.407C183.429 138.52 184.092 138.576 184.92 138.576C186.578 138.576 187.765 138.267 188.484 137.65C189.257 136.976 189.727 136.021 189.893 134.785C190.114 133.55 190.224 131.809 190.224 129.563C190.224 128.496 190.17 127.541 190.06 126.699C189.95 125.8 189.674 125.014 189.231 124.34C188.789 123.666 188.264 123.104 187.657 122.655C187.049 122.149 186.69 121.841 186.579 121.728L176.385 114.736C174.783 113.501 173.734 112.658 173.237 112.209C172.739 111.76 172.131 110.974 171.414 109.85C170.751 108.671 170.254 107.408 169.922 106.06C169.59 104.712 169.424 102.831 169.424 100.416C169.424 98.5625 169.507 97.046 169.673 95.8667C169.894 94.6312 170.418 93.1149 171.247 91.3178C172.075 89.5207 173.788 88.0325 176.385 86.8531C179.037 85.6177 182.02 85 185.335 85C187.103 85 189.506 85.3089 192.545 85.9268C195.638 86.5446 197.627 88.0328 198.511 90.3914C199.451 92.694 199.975 94.154 200.085 94.7718C200.195 95.3896 200.305 96.4005 200.416 97.8044V103.701H189.643V97.6359C189.643 96.1195 189.201 95.0245 188.318 94.3506C187.435 93.6767 186.275 93.3399 184.838 93.3399C183.345 93.3399 182.157 93.761 181.274 94.6035C180.446 95.3897 180.032 96.9342 180.032 99.2367C180.032 100.135 180.087 101.118 180.196 102.185C180.306 103.252 180.555 104.094 180.943 104.712C181.385 105.274 182.213 106.004 183.429 106.902L193.871 114.231C195.031 115.13 195.915 115.888 196.523 116.506C197.185 117.067 197.931 117.91 198.761 119.033C199.59 120.1 200.17 121.251 200.502 122.487C200.834 123.666 201 125.884 201 129.141V132.174C201 133.69 200.969 134.814 200.906 135.544C200.843 136.217 200.567 137.453 200.077 139.25C199.579 141.047 198.115 142.788 195.685 144.473C193.309 146.158 189.828 147 185.243 147C182.757 147 180.547 146.775 178.613 146.326C176.68 145.877 175.105 145.175 173.89 144.22C172.729 143.266 171.873 142.479 171.321 141.862C170.823 141.188 170.409 140.43 170.078 139.587C169.746 138.745 169.47 137.902 169.249 137.06C169.083 136.161 169 134.954 169 133.438V124.761L179.698 124.76Z" fill="white"/>
<path d="M229.395 100.418L229.231 98.3119C229.231 96.571 228.761 95.3356 227.821 94.6055C226.938 93.8193 225.612 93.4261 223.844 93.4261C222.683 93.4261 221.744 93.6507 221.026 94.1C220.307 94.5492 219.754 95.195 219.367 96.0374C219.035 96.8237 218.869 98.1153 218.869 99.9123V131.754C218.869 132.878 218.98 134.282 219.201 135.966C219.476 137.651 221.134 138.493 224.173 138.493C225.056 138.493 225.719 138.437 226.163 138.324C226.604 138.155 227.129 137.846 227.737 137.397C228.399 136.948 228.841 136.274 229.062 135.375C229.282 134.421 229.393 133.017 229.393 131.163V123.413H240V131.837C240 133.578 239.945 134.926 239.836 135.881C239.773 136.779 239.413 138.211 238.757 140.177C238.095 142.086 236.41 143.715 233.702 145.063C231.05 146.354 227.901 147 224.255 147C222.873 147 221.851 146.944 221.189 146.831C220.526 146.775 219.338 146.578 217.625 146.241C215.912 145.904 214.227 145.202 212.57 144.135C210.912 143.012 209.78 141.692 209.172 140.176C208.565 138.603 208.205 137.424 208.094 136.638C208.031 135.851 208 134.672 208 133.1V100.753L208.165 97.6357C208.165 95.6701 208.468 93.9573 209.076 92.4972C209.738 91.0371 210.76 89.7454 212.142 88.6222C213.578 87.443 215.208 86.5444 217.032 85.9266C218.91 85.3087 221.368 85 224.407 85C226.562 85 228.523 85.1965 230.291 85.5895C232.114 85.9826 233.827 86.7406 235.429 87.8638C237.086 88.9309 238.191 90.1383 238.744 91.4861C239.352 92.7777 239.711 93.8448 239.822 94.6871C239.932 95.5295 239.987 96.9054 239.987 98.8147V107.912H229.379L229.395 100.418Z" fill="white"/>
<path d="M266.947 86L278 146H266.947L265.523 136.227H255.476L253.885 146H243L254.472 86H266.947ZM264.352 126.963L260.751 101.212L256.816 126.963H264.352Z" fill="white"/>
<path d="M303.061 146L292.435 101.042L293.37 146H283V86H297.195L307.991 130.023L306.885 86H317V146H303.061Z" fill="white"/>
<path d="M324.001 99.6575C324.001 98.1412 324.113 96.4283 324.338 94.5189C324.563 92.6095 325.491 90.9248 327.123 89.4647C328.811 87.9484 330.696 86.8252 332.778 86.0951C334.916 85.365 337.56 85 340.711 85C344.706 85 347.941 85.674 350.417 87.0218C352.892 88.3697 354.496 89.8018 355.227 91.318C355.959 92.7781 356.438 94.0978 356.663 95.2772C356.888 96.4003 357 97.9447 357 99.9104V133.016C357 135.319 356.775 137.228 356.325 138.744C355.875 140.261 354.891 141.749 353.371 143.209C351.853 144.613 349.996 145.596 347.801 146.158C345.663 146.719 343.272 147 340.627 147C337.927 147 335.592 146.747 333.622 146.242C331.709 145.793 330.134 145.091 328.896 144.136C327.659 143.125 326.786 142.283 326.28 141.609C325.83 140.935 325.436 140.233 325.098 139.503C324.76 138.773 324.479 137.846 324.254 136.723C324.085 135.544 324 134.308 324 133.017L324.001 99.6575ZM335.057 131.163C335.057 132.567 335.113 133.662 335.224 134.448C335.336 135.178 335.589 135.852 335.983 136.47C336.432 137.088 337.079 137.565 337.923 137.902C338.766 138.239 339.639 138.407 340.539 138.407C341.158 138.407 341.721 138.351 342.228 138.238C342.791 138.125 343.438 137.816 344.168 137.311C344.9 136.806 345.379 136.076 345.604 135.121C345.829 134.167 345.941 132.931 345.941 131.415V100.668V99.4039C345.941 98.6739 345.885 98.0562 345.774 97.5508C345.71 96.9891 345.513 96.3995 345.183 95.7818C344.902 95.1079 344.396 94.5183 343.663 94.0128C342.989 93.5074 342.004 93.2548 340.71 93.2548C339.978 93.2548 339.331 93.3389 338.77 93.5073C338.207 93.6757 337.588 94.0128 336.913 94.5182C336.238 94.9674 335.76 95.6412 335.478 96.5399C335.197 97.4385 335.056 98.5055 335.056 99.7409V101.089L335.057 131.163Z" fill="white"/>
<path d="M384.471 146L374.158 101.042L375.065 146H365V86H378.778L389.256 130.023L388.182 86H398V146H384.471Z" fill="white"/>
<path d="M264.39 44.4349H263.23V50.5199H264.39C265.826 50.5199 266.032 50.1719 266.103 47.4781C266.103 44.7109 265.826 44.4349 264.39 44.4349" fill="white"/>
<path d="M338.99 40.0589H344.216V35.0704H338.99V40.0589Z" fill="white"/>
<path d="M265.963 37.4959C265.963 35.4161 265.62 35.0079 264.493 35.0079H263.23V39.9959H264.493C265.62 39.9959 265.963 39.6527 265.963 37.4959Z" fill="white"/>
<path d="M318.872 35.0079H317.711V50.5183H318.872C319.897 50.5183 320.307 50.0391 320.307 48.3985V37.1251C320.307 35.4865 319.897 35.0079 318.872 35.0079" fill="white"/>
<path d="M537.275 75.3375H451.184V10.1823H537.275V75.3375ZM440.977 49.2161C440.977 53.7943 438.925 54.9557 434.556 54.9557H428.405V30.5641H434.556C438.925 30.5641 440.977 31.7281 440.977 36.3043V49.2161ZM424.092 54.9557H419.112V30.5641H424.092V54.9557ZM415.117 49.6953C415.117 54.2724 413.068 55.4365 408.693 55.4365C404.319 55.4365 402.271 54.2724 402.271 49.6953V30.5641H407.253V48.9469C407.253 50.6537 407.669 50.9896 408.693 50.9896C409.713 50.9896 410.128 50.6537 410.128 48.9469V30.5641H415.117V49.6953ZM400.695 54.9557H391.823V30.5641H396.817V50.5183H400.695V54.9557ZM388.24 35.0079H383.313V39.9959H388V44.4365H383.313V50.5183H388.24V54.9557H378.328V30.5641H388.24V35.0079ZM374.465 37.3308H369.478V35.8589C369.478 34.9052 369.064 34.5256 368.043 34.5256C367.02 34.5256 366.609 34.9052 366.609 35.8589V49.6604C366.609 50.6172 367.02 50.9896 368.043 50.9896C369.064 50.9896 369.775 50.6172 369.775 49.6604V44.4365H368.435V39.9959H374.465V54.9557H371.22L370.503 53.1787C369.478 54.6787 368.627 55.4365 366.468 55.4365C363.568 55.4365 361.625 53.7256 361.625 50.6172V35.8292C361.625 31.7959 363.36 30.088 367.908 30.088C372.725 30.088 374.465 31.7959 374.465 35.8292V37.3308ZM353.535 54.9115H348.583L344.265 44.5016H338.99V50.4599H344.247V54.9245H334.002V30.6292H344.247V35.0704H344.245L348.825 45.7969H348.893V30.6625H353.535V54.9115ZM325.296 49.2161C325.296 53.7943 323.246 54.9557 318.872 54.9557H312.724V30.5641H318.872C323.246 30.5641 325.296 31.7281 325.296 36.3043V49.2161ZM309.749 54.9557H301.117V30.5641H306.104V50.5183H309.749V54.9557ZM297.53 35.0079H292.843V39.9959H297.289V44.4365H292.843V50.5183H297.53V54.9557H287.855V30.5641H297.53V35.0079ZM284.268 35.0079H279.595V39.9959H284.027V44.4365H279.595V50.5183H284.268V54.9557H274.605V30.5641H284.268V35.0079ZM271.089 49.9661C271.089 53.25 269.515 54.9557 265.653 54.9557H258.241V30.5641H265.52C269.378 30.5641 270.951 32.2761 270.951 35.5537V37.6709C270.951 39.5156 270.336 41.3599 267.943 42.112V42.1823C270.132 42.5229 271.089 43.8907 271.089 46.3125V49.9661ZM440.977 1.10231e-08V20.3819H248V65.1511H440.977V85.5183H547.455V1.10231e-08H440.977Z" fill="white"/>
<path d="M434.556 35.0079H433.392V50.5183H434.556C435.572 50.5183 435.985 50.0391 435.985 48.3985V37.1251C435.985 35.4865 435.572 35.0079 434.556 35.0079" fill="white"/>
</svg>
